# xmcd CD database file
#
# Track frame offsets:
#	150
#	20662
#	37642
#	56512
#	70575
#	94087
#	114380
#	132612
#	154252
#	172935
#	190667
#	209637
#
# Disc length: 3024 seconds
#
# Revision: 1
# Processed by: cddbd v1.5PL3 Copyright (c) Steve Scherf et al.
# Submitted via: CDex 1.51
#
DISCID=9d0bce0c
DTITLE=野田幹子 - MIDI
DYEAR=1991
DGENRE=JPop
TTITLE0=コート・ダジュール -空と海が抱きあうように-
TTITLE1=Travelin' Heart
TTITLE2=真夏日の共犯者
TTITLE3=夜の泉
TTITLE4=揺れる -I Miss You-
TTITLE5=エアポート
TTITLE6=夏服のカノン
TTITLE7=Heaven In Heaven
TTITLE8=Rain Forest
TTITLE9=Kitchen Venus
TTITLE10=太陽・神様・少年
TTITLE11=DISTANT SHORE
EXTD=YEAR: 1991
EXTT0=
EXTT1=
EXTT2=
EXTT3=
EXTT4=
EXTT5=
EXTT6=
EXTT7=
EXTT8=
EXTT9=
EXTT10=
EXTT11=
PLAYORDER=
